<?xml version="1.0" encoding="UTF-8"?>
<svg width="1200pt" height="1200pt" version="1.1" viewBox="0 0 1200 1200" xmlns="http://www.w3.org/2000/svg">
 <path d="m43.426 129.04h-0.60156c-23.664 0-42.824 19.164-42.824 42.824 0 23.664 19.164 42.824 42.824 42.824h0.63672 1113.1 0.60156c23.664 0 42.824-19.164 42.824-42.824 0-23.664-19.164-42.824-42.824-42.824h-0.63672zm0 428.14h-0.60156c-23.664 0-42.824 19.164-42.824 42.824 0 23.664 19.164 42.824 42.824 42.824h0.63672 1113.1 0.60156c23.664 0 42.824-19.164 42.824-42.824 0-23.664-19.164-42.824-42.824-42.824h-0.63672zm0 428.14h-0.60156c-23.664 0-42.824 19.164-42.824 42.824 0 23.664 19.164 42.824 42.824 42.824h0.63672 1113.1 0.60156c23.664 0 42.824-19.164 42.824-42.824 0-23.664-19.164-42.824-42.824-42.824h-0.63672z"/>
</svg>
