<?xml version="1.0" encoding="UTF-8"?>
<svg width="1200pt" height="1200pt" version="1.1" viewBox="0 0 1200 1200" xmlns="http://www.w3.org/2000/svg">
 <path d="m94.738 591.16c0 14.652-11.879 26.527-26.527 26.527-14.652 0-26.527-11.875-26.527-26.527 0-14.648 11.875-26.523 26.527-26.523 14.648 0 26.527 11.875 26.527 26.523"/>
 <path d="m0 536.84v126.32h1200v-126.32zm112.42 106.11-21.473-21.477c-17.688 12.633-40.422 8.8438-53.055-7.5781-12.633-16.422-8.8438-40.422 7.5781-53.051 16.422-12.633 40.422-8.8438 53.051 7.5781 10.105 13.895 10.105 32.844-1.2617 46.738l21.473 21.473z"/>
</svg>
